<?xml version="1.0" encoding="utf-8"?>
<!-- Generator: Adobe Illustrator 26.5.0, SVG Export Plug-In . SVG Version: 6.00 Build 0)  -->
<svg version="1.1" id="Layer_1" xmlns="http://www.w3.org/2000/svg" xmlns:xlink="http://www.w3.org/1999/xlink" x="0px" y="0px"
	 viewBox="0 0 384 384" style="enable-background:new 0 0 384 384;" xml:space="preserve">
<g id="Layer_1_00000049930180509587694890000002734823917473629061_">
	<g>
		<path d="M330,317.8c0-2.3,0-4.3,0-6.3c0-58.6,0-117.2,0-175.7c0-16.9,11.3-28.4,23.1-23.8c7.8,3,12.9,12.2,12.9,23.6
			c0,33,0,66.1,0,99.1c0,29.7,0,59.4,0,89.1c0,25.3-12.7,42.2-31.7,42.2c-94.9,0-189.7,0-284.6,0c-19,0-31.7-16.9-31.7-42.2
			c0-62.7,0-125.5,0-188.2c0-12.3,5.9-21.8,14.7-24.2c7.9-2.1,16.5,3.6,19.6,13.8c1.1,3.7,1.6,8,1.6,12.1
			C54,195.6,54,253.8,54,312.1c0,1.8,0,3.6,0,5.8C145.9,317.8,237.7,317.8,330,317.8z"/>
		<path d="M174,232.3c0-2.2,0-3.6,0-4.9c0-63.4,0-126.8,0-190.2c0-11.3,7.8-19.5,18.4-19.3c9.2,0.2,16.9,7.5,17.6,16.7
			c0.1,1.5,0.1,3,0.1,4.5c0,62.8,0,125.5,0,188.3c0,1.4,0,2.7,0,4.8c1.4-1.3,2.4-2.2,3.3-3.1c11.2-11.2,22.4-22.6,33.7-33.6
			c9.9-9.7,26-5.8,29.9,7.2c2.2,7.2,0.3,13.5-5.1,18.8c-10.6,10.6-21.2,21.2-31.8,31.8c-11.3,11.3-22.6,22.7-34,33.9
			c-9,9-19.2,9-28.3,0c-21.9-21.9-43.9-43.8-65.8-65.8c-10.2-10.3-6.7-26.4,6.6-30.5c7.2-2.2,13.5-0.3,18.8,5
			c11,11.1,22.1,22.1,33.2,33.2C171.5,230,172.4,230.8,174,232.3z"/>
	</g>
</g>
</svg>
