<?xml version="1.0" encoding="UTF-8"?><svg id="Layer_1" xmlns="http://www.w3.org/2000/svg" viewBox="0 0 348 348.1"><g id="Layer_1-2"><g><path d="M312,299.9V117.9c0-16.9,11.3-28.4,23.1-23.8,7.8,3,12.9,12.2,12.9,23.6v188.2c0,25.3-12.7,42.2-31.7,42.2H31.7c-19,0-31.7-16.9-31.7-42.2V117.7c0-12.3,5.9-21.8,14.7-24.2,7.9-2.1,16.5,3.6,19.6,13.8,1.1,3.7,1.6,8,1.6,12.1,.1,58.3,.1,116.5,.1,174.8v5.8c91.9-.1,183.7-.1,276-.1Z"/><path d="M156,214.4V19.3C156,8,163.8-.2,174.4,0c9.2,.2,16.9,7.5,17.6,16.7,.1,1.5,.1,3,.1,4.5V214.3c1.4-1.3,2.4-2.2,3.3-3.1,11.2-11.2,22.4-22.6,33.7-33.6,9.9-9.7,26-5.8,29.9,7.2,2.2,7.2,.3,13.5-5.1,18.8-10.6,10.6-21.2,21.2-31.8,31.8-11.3,11.3-22.6,22.7-34,33.9-9,9-19.2,9-28.3,0-21.9-21.9-43.9-43.8-65.8-65.8-10.2-10.3-6.7-26.4,6.6-30.5,7.2-2.2,13.5-.3,18.8,5,11,11.1,22.1,22.1,33.2,33.2,.9,.9,1.8,1.7,3.4,3.2Z"/></g></g></svg>